<?xml version="1.0" encoding="iso-8859-1"?>
<!-- Generator: Adobe Illustrator 19.0.0, SVG Export Plug-In . SVG Version: 6.00 Build 0)  -->
<svg version="1.1" id="Layer_1" xmlns="http://www.w3.org/2000/svg" xmlns:xlink="http://www.w3.org/1999/xlink" x="0px" y="0px"
	 viewBox="0 0 512 512" style="enable-background:new 0 0 512 512;" xml:space="preserve">
<g>
	<g>
		<circle style="fill:#fff;" cx="251" cy="251" r="241"/>
		<path d="M437.02,74.98C388.667,26.628,324.38,0,256,0S123.333,26.628,74.98,74.98C26.628,123.333,0,187.62,0,256
			s26.628,132.667,74.98,181.02C123.333,485.372,187.62,512,256,512s132.667-26.628,181.02-74.98
			C485.372,388.667,512,324.38,512,256S485.372,123.333,437.02,74.98z M256,491.602c-129.911,0-235.602-105.69-235.602-235.602
			S126.089,20.398,256,20.398S491.602,126.089,491.602,256S385.911,491.602,256,491.602z"/>
	</g>
</g>
<g>
	<g>
		<path d="M256,35.697c-9.648,0-19.359,0.63-28.861,1.875c-5.586,0.73-9.521,5.851-8.79,11.436c0.672,5.136,5.056,8.876,10.1,8.876
			c0.442,0,0.888-0.028,1.337-0.087c8.628-1.129,17.447-1.702,26.213-1.702c5.633,0,10.199-4.566,10.199-10.199
			C266.199,40.263,261.633,35.697,256,35.697z"/>
	</g>
</g>
<g>
	<g>
		<path d="M192.121,55.522c-1.968-5.278-7.844-7.959-13.121-5.991c-41.645,15.537-77.273,43.016-103.032,79.467
			C49.622,166.279,35.697,210.195,35.697,256c0,5.633,4.566,10.199,10.199,10.199c5.633,0,10.199-4.566,10.199-10.199
			c0-83.047,52.257-158.341,130.035-187.356C191.408,66.674,194.091,60.801,192.121,55.522z"/>
	</g>
</g>
<g>
</g>
<g>
</g>
<g>
</g>
<g>
</g>
<g>
</g>
<g>
</g>
<g>
</g>
<g>
</g>
<g>
</g>
<g>
</g>
<g>
</g>
<g>
</g>
<g>
</g>
<g>
</g>
<g>
</g>
</svg>
